<?xml version="1.0" encoding="UTF-8"?>
<svg id="uuid-35866e43-cda9-42fe-8c8a-377b448d0408" data-name="Layer 1" xmlns="http://www.w3.org/2000/svg" xmlns:xlink="http://www.w3.org/1999/xlink" viewBox="0 0 567.57 442.22">
  <defs>
    <style>
      .uuid-b9da13d7-370d-4304-8f9e-5686479d1341 {
        fill: url(#uuid-f5e0927e-eef4-40bc-bd5d-0a11a1286c32);
      }
    </style>
    <linearGradient id="uuid-f5e0927e-eef4-40bc-bd5d-0a11a1286c32" x1="1065.89" y1="650.94" x2="1066.89" y2="650.94" gradientTransform="translate(-604967.14 288083.71) scale(567.57 -442.22)" gradientUnits="userSpaceOnUse">
      <stop offset="0" stop-color="#26275f"/>
      <stop offset=".14" stop-color="#813e96"/>
      <stop offset=".29" stop-color="#2e64af"/>
      <stop offset=".5" stop-color="#3faa49"/>
      <stop offset=".71" stop-color="#f2e64a"/>
      <stop offset=".86" stop-color="#f2903b"/>
      <stop offset="1" stop-color="#ed4533"/>
    </linearGradient>
  </defs>
  <path class="uuid-b9da13d7-370d-4304-8f9e-5686479d1341" d="M549.34,186.95c-21.54-36.59-65.11-28.64-93.36-5.56-20.91,17.08-38.64,39.48-50.46,64.41-5.48-8.99-12.12-17.44-19.47-25.13,25.5-52.49,28.01-116.47,6.67-170.78-22.83-58.08-88.74-59.17-138.29-35.08-35.33,17.17-48.55,55.92-59.26,93.54-3.55-16.07-7.51-32.01-14.47-47.26-12.24-26.8-36.88-43.63-64.35-51.63C67.34-4.78,6.97,21.12.75,75.85c-6.36,55.92,28.87,112.95,62.14,155.04,49.67,62.88,117.98,108.12,173.03,165.86,4.15,4.34,9.15,4.74,13.35,2.96,2.69-.82,5.21-2.56,7.08-5.6,12.22-19.85,26.51-38.11,41.39-55.93,2.83,3.48,5.65,6.91,8.38,10.18,25.44,30.53,55.47,60.99,88.45,84.22,2.9,7.21,12.92,11.75,21.38,8.65,3.15-.98,5.81-3.16,7.75-5.94,57.18-73.89,192.74-134.34,125.64-248.34h0ZM243.14,366.96c-74.75-74.38-169.63-133.62-208.58-236.06-8.7-22.86-13.3-48.98-1.47-71.48,13.11-24.94,44.69-30.22,69.83-26.29,64.44,10.08,62.68,79.11,78.37,127.98,4.12,12.82,20.65,11.93,25.1,0,14.64-39.24,18.57-96.17,56.39-121.1,21.41-14.12,53.87-18.42,78.05-10.92,25.33,7.85,32.37,40.78,36.5,63.14,7.31,39.57,2.17,75.86-12.42,109.83-6.44-4.8-13.05-9.11-19.69-12.69-37.31-20.12-88.44-6.82-94.19,39.99-3.85,31.43,11.89,61.78,30.85,88.17-13.55,15.93-26.83,32.09-38.71,49.42ZM290.03,270.78c-14.64-28.9-9.74-70.38,32.32-57.97,9.68,2.85,19.63,8.55,28.86,15.98-4.35,7.33-9.09,14.57-14.28,21.71-10.76,14.78-22.4,28.8-34.23,42.65-4.61-7.41-8.88-14.88-12.67-22.37h0ZM476.32,343.72c-22.77,20.47-46.65,39.26-67.1,61.84-33.71-23.75-66.39-55.88-91.77-90.57,18.54-21.61,37-43.26,52.75-66.99,12.37,15.67,20.71,34.13,20.37,51.04-.41,20.09,28.98,19.4,30.72,0,3.01-33.63,23.62-64.98,47.2-88.04,9.91-9.7,25.62-21.51,40.47-19.04,19.71,3.27,25.46,36.6,26.86,52.08,3.78,41.62-31.43,74.44-59.51,99.69Z"/>
</svg>