
        <svg width="100%" height="100%" xmlns="http://www.w3.org/2000/svg" xmlns:xlink="http://www.w3.org/1999/xlink" version="1.1"   viewBox="0 0 3162.1621621621625 631.5311280435624">
			
			<g transform="scale(8.108108108108109) translate(10, 10)">
				<defs id="SvgjsDefs1111"><linearGradient id="SvgjsLinearGradient1118"><stop id="SvgjsStop1119" stop-color="#26275f" offset="0"/><stop id="SvgjsStop1120" stop-color="#813e96" offset="0.14"/><stop id="SvgjsStop1121" stop-color="#2e64af" offset="0.29"/><stop id="SvgjsStop1122" stop-color="#3faa49" offset="0.5"/><stop id="SvgjsStop1123" stop-color="#f2e64a" offset="0.71"/><stop id="SvgjsStop1124" stop-color="#f2903b" offset="0.86"/><stop id="SvgjsStop1125" stop-color="#ed4533" offset="1"/></linearGradient></defs><g id="SvgjsG1112" featureKey="LwVBM5-0" transform="matrix(0.75781264260547,0,0,0.75781264260547,-2.7295903670911033,-10.123702855483407)" fill="#000"><g xmlns="http://www.w3.org/2000/svg"><path d="M93.006,46.425C89.5,40.47,82.41,41.764,77.811,45.52c-3.403,2.78-6.289,6.425-8.212,10.482   c-0.892-1.463-1.972-2.838-3.169-4.09c4.15-8.542,4.559-18.956,1.085-27.794c-3.716-9.452-14.442-9.63-22.507-5.709   c-5.75,2.795-7.902,9.101-9.645,15.224c-0.577-2.616-1.222-5.209-2.355-7.691c-1.992-4.362-6.003-7.101-10.473-8.402   c-7.973-2.32-17.799,1.896-18.811,10.803c-1.035,9.101,4.699,18.382,10.113,25.233c8.084,10.234,19.201,17.596,28.161,26.994   c0.675,0.707,1.489,0.771,2.173,0.482c0.438-0.133,0.848-0.416,1.153-0.912c1.989-3.23,4.314-6.203,6.736-9.103   c0.461,0.567,0.92,1.124,1.364,1.657c4.141,4.969,9.027,9.926,14.395,13.707c0.472,1.174,2.102,1.912,3.479,1.408   c0.512-0.159,0.945-0.515,1.261-0.967C81.865,74.816,103.928,64.979,93.006,46.425z M43.173,75.721   C31.007,63.615,15.566,53.975,9.226,37.303c-1.416-3.721-2.165-7.971-0.24-11.634c2.133-4.059,7.273-4.919,11.364-4.279   c10.488,1.641,10.201,12.875,12.754,20.829c0.67,2.087,3.361,1.942,4.085,0c2.383-6.387,3.023-15.651,9.178-19.709   c3.485-2.298,8.767-2.998,12.702-1.777c4.122,1.278,5.269,6.637,5.94,10.276c1.189,6.44,0.353,12.346-2.022,17.875   c-1.048-0.781-2.124-1.482-3.205-2.065c-6.072-3.275-14.394-1.11-15.329,6.509c-0.627,5.115,1.935,10.055,5.02,14.35   C47.267,70.27,45.107,72.901,43.173,75.721z M50.804,60.068c-2.382-4.704-1.585-11.455,5.26-9.435   c1.575,0.464,3.195,1.391,4.697,2.601c-0.708,1.193-1.479,2.372-2.324,3.533c-1.751,2.405-3.646,4.687-5.571,6.941   C52.116,62.502,51.421,61.287,50.804,60.068z M81.122,71.939c-3.705,3.332-7.592,6.39-10.921,10.065   c-5.486-3.865-10.805-9.094-14.935-14.74c3.018-3.517,6.022-7.041,8.585-10.903c2.014,2.551,3.371,5.555,3.315,8.306   c-0.066,3.27,4.717,3.157,5,0c0.49-5.474,3.844-10.576,7.682-14.329c1.613-1.578,4.169-3.5,6.587-3.099   c3.208,0.533,4.144,5.956,4.372,8.476C91.423,62.489,85.692,67.83,81.122,71.939z"/></g></g><g id="SvgjsG1113" featureKey="YhTCwJ-0" transform="matrix(1.868410318630281,0,0,1.868410318630281,88.7294809699675,-11.173094631973646)" fill="#000"><path d="M0.68 20 l0 -0.54 c0.66 -0.7 1.02 -1.66 1.02 -2.62 l0 -7.66 c0 -0.96 -0.36 -1.92 -1.02 -2.62 l0 -0.56 l4.26 0 l0 0.56 c-0.68 0.7 -1.02 1.66 -1.02 2.62 l0 9.9 l3.14 0 c1.06 0 2.08 -0.32 2.92 -0.94 l0.64 0 l0 1.86 l-9.94 0 z M19.2 20 l-0.54 -0.14 c-0.9 -0.24 -1.88 -0.24 -2.72 0.02 c-0.34 0.1 -0.66 0.12 -0.98 0.12 c-1.96 0 -3.52 -1.54 -3.52 -3.48 c0 -1.9 1.56 -3.46 3.52 -3.46 c0.78 0 1.48 0.24 2.02 0.62 l0 -0.02 s0.16 -2.44 -0.92 -2.74 c-1.12 -0.32 -1.52 0.34 -2.34 1.58 l-1.68 -0.02 c0.52 -1.32 1.54 -2.24 2.98 -2.24 c0.54 0 1.1 0.1 1.64 0.26 c0 0 2.54 0.78 2.54 3.16 l0 6.34 z M13.06 17.02 c0.46 1.5 1.6 2.56 2.76 2.3 c1.12 -0.26 1.64 -1.72 1.18 -3.28 c-0.44 -1.48 -1.74 -2.54 -2.86 -2.26 c-1.14 0.28 -1.54 1.72 -1.08 3.24 z M20.98 20.02 l0 -10.8 c0 -0.98 -0.38 -1.92 -1.04 -2.64 l0 -0.58 l3.2 0 l0 5.12 c0.78 -0.5 1.76 -0.84 2.78 -0.84 c3.2 0 5.2 2.18 5.2 4.9 c0 2.68 -2.46 4.84 -5.2 4.84 c-0.54 0 -1.02 -0.06 -1.5 -0.22 c-1.14 -0.4 -2.38 -0.26 -3.44 0.22 z M23.14 15.84 c0.68 2.24 2.36 3.74 4.02 3.36 c1.62 -0.38 2.42 -2.48 1.74 -4.72 c-0.68 -2.2 -2.52 -3.66 -4.18 -3.3 c-1.64 0.36 -2.26 2.46 -1.58 4.66 z M32.48 15.22 c0 -3.02 2.44 -4.96 5.22 -4.96 c2.82 0 5.32 1.88 5.32 4.96 c0 3.1 -2.5 4.96 -5.32 4.96 c-2.78 0 -5.22 -1.92 -5.22 -4.96 z M35.04 15.88 c0.68 2.32 2.34 3.94 3.96 3.56 c1.58 -0.38 2.32 -2.54 1.6 -4.88 c-0.68 -2.28 -2.5 -3.86 -4.14 -3.5 c-1.58 0.36 -2.12 2.48 -1.42 4.82 z M44.32 20 l0 -0.5 c0.68 -0.74 1.02 -1.66 1.02 -2.66 l0 -3.3 c0 -0.98 -0.34 -1.92 -1.02 -2.62 l0 -0.58 l3.22 0 l0 1.04 c0.62 -0.62 1.8 -1.1 2.62 -1.1 c0.86 0 1.46 0.32 1.46 0.32 l-0.42 1.82 s-0.9 -0.74 -2 -0.74 c-1.46 0 -1.66 0.98 -1.66 1.24 l0 3.92 c0 1 0.38 1.92 1.02 2.66 l0 0.5 l-4.24 0 z M62.86 20 l-3 -7.72 c-0.08 -0.2 -0.16 -0.3 -0.28 -0.44 l-0.88 -0.94 l0 -0.56 l3.78 0 l0 0.56 l-0.26 0.56 c-0.18 0.38 -0.18 0.76 -0.04 1.14 l2.48 6.34 l1.96 -5.04 c0.46 -1.14 0.46 -2.4 0 -3.56 l2.2 0 l3.34 8.64 l2.58 -6.62 c0.18 -0.5 0.08 -1.06 -0.32 -1.4 l0 -0.62 l2.44 0 l0 0.62 l-0.78 0.5 c-0.24 0.16 -0.36 0.36 -0.46 0.62 l-3.06 7.92 l-2.2 0 l-2.66 -6.84 l-2.68 6.84 l-2.16 0 z M77.8 20 l0 -0.54 c0.56 -0.7 0.86 -1.66 0.86 -2.62 l0 -3.32 c0 -0.98 -0.3 -1.92 -0.86 -2.62 l0 -0.56 l2.76 0 l0 6.52 c0 0.94 0.32 1.9 0.9 2.6 l0 0.54 l-3.66 0 z M79.34 9.46 c-0.76 0 -1.38 -0.64 -1.38 -1.4 c0 -0.78 0.62 -1.4 1.38 -1.4 c0.78 0 1.4 0.62 1.4 1.4 c0 0.76 -0.62 1.4 -1.4 1.4 z M83.66 16.48 l0 -5.32 l-1.48 0 l0 -0.82 l1.48 0 l0 -3.32 l2.18 -1.04 l0 4.36 l1.44 0 l0 0.82 l-1.44 0 l0 5.2 c0 0.78 0.3 1.46 0.68 1.96 c0.22 0.3 0.48 0.52 0.76 0.68 l0 1.1 c-0.46 -0.02 -0.94 -0.12 -1.44 -0.32 c-1.16 -0.48 -2.18 -1.46 -2.18 -3.3 z M88.36 20 l0 -0.54 c0.68 -0.7 1.06 -1.66 1.06 -2.62 l0 -7.66 c0 -0.96 -0.38 -1.9 -1.06 -2.6 l0 -0.58 l3.24 0 l0 5.08 c0.72 -0.52 1.58 -0.8 2.4 -0.8 c2.36 0 4.62 1.42 4.62 4.88 l0 1.68 c0 0.96 0.34 1.92 1.02 2.62 l0 0.54 l-4.22 0 l0 -0.54 c0.66 -0.7 1.02 -1.66 1.02 -2.6 l0 -1.3 c0 -1.84 -1.26 -5 -3.8 -4.42 c-0.62 0.14 -1.04 0.84 -1.04 1.48 l0 4.24 c0 0.94 0.34 1.9 1.02 2.6 l0 0.54 l-4.26 0 z M107.3 20 l0 -0.54 c0.66 -0.7 1.02 -1.66 1.02 -2.62 l0 -7.66 c0 -0.96 -0.36 -1.92 -1.02 -2.62 l0 -0.56 l4.26 0 l0 0.56 c-0.68 0.7 -1.02 1.66 -1.02 2.62 l0 9.9 l3.14 0 c1.06 0 2.08 -0.32 2.92 -0.94 l0.64 0 l0 1.86 l-9.94 0 z M118.04 15.22 c0 -3.02 2.44 -4.96 5.22 -4.96 c2.82 0 5.32 1.88 5.32 4.96 c0 3.1 -2.5 4.96 -5.32 4.96 c-2.78 0 -5.22 -1.92 -5.22 -4.96 z M120.6 15.88 c0.68 2.32 2.34 3.94 3.96 3.56 c1.58 -0.38 2.32 -2.54 1.6 -4.88 c-0.68 -2.28 -2.5 -3.86 -4.14 -3.5 c-1.58 0.36 -2.12 2.48 -1.42 4.82 z M133.66 20 l-3.02 -7.72 c-0.08 -0.2 -0.14 -0.3 -0.26 -0.44 l-0.88 -0.94 l0 -0.56 l3.76 0 l0 0.56 l-0.28 0.6 c-0.16 0.34 -0.16 0.72 -0.02 1.1 l2.5 6.34 l2.54 -6.58 c0.18 -0.5 0.08 -1.06 -0.26 -1.4 l0 -0.62 l2.38 0 l0 0.62 l-0.76 0.5 c-0.24 0.16 -0.4 0.4 -0.48 0.62 l-3.06 7.92 l-2.16 0 z M148.74 16.94 l1.48 0 c-0.7 1.9 -2.54 3.26 -4.76 3.26 c-2.82 0 -5.06 -2.26 -5.06 -4.98 c0 -2.78 2.24 -5.04 5.06 -5.04 c2.78 0 5.04 2.2 5.08 4.94 l-8.12 0 c0.08 0.24 0.12 0.5 0.2 0.78 c0.64 2.2 2.16 3.78 3.7 3.78 c1.44 0 2.22 -1.36 2.42 -2.74 z M142.32 14.3 l6.14 0 c-0.68 -2.08 -2.28 -3.4 -3.78 -3.4 c-1.52 0 -2.38 1.46 -2.38 2.96 c0 0.14 0 0.3 0.02 0.44 z"/></g><g id="SvgjsG1114" featureKey="duLK5n-0" transform="matrix(0.7407373170227859,0,0,0.7407373170227859,89.25926268297721,41.725951093990574)" fill="#000"><path d="M1.26 20 c-0.16 0 -0.26 -0.12 -0.26 -0.26 l0 -11.98 c0 -0.14 0.1 -0.26 0.26 -0.26 l4.88 0 c1.52 0 2.72 0.38 3.56 1.16 c1.24 1.12 1.66 3.24 1.06 4.8 c-0.22 0.56 -0.6 1.08 -1.08 1.46 c-0.28 0.22 -0.58 0.38 -0.88 0.54 c0.86 1.36 2.16 4.12 2.16 4.12 c0.02 0.04 0.06 0.1 0.06 0.16 c0 0.14 -0.12 0.26 -0.26 0.26 l-2.96 0 c-0.08 0 -0.18 -0.06 -0.22 -0.14 l-1.74 -3.82 c-0.62 0.04 -1.1 0.02 -1.74 0.02 l0 3.68 c0 0.14 -0.12 0.26 -0.26 0.26 l-2.58 0 z M4.1 13.28 c0 0 2.52 0.28 3.4 -0.3 c0.34 -0.22 0.54 -0.76 0.54 -1.16 c-0.02 -0.44 -0.24 -0.9 -0.6 -1.18 c-0.38 -0.32 -1.32 -0.42 -1.8 -0.42 l-1.54 0.04 l0 3.02 z M15.6195 20 l0 -11.98 c0 -0.5 0.1 -0.6 0.26 -0.6 l8.76 0 c0.14 0 0.26 0.1 0.26 0.24 l0 2.26 c0 0.14 -0.12 0.26 -0.26 0.26 l-5.92 0 l0 2.08 l3.74 0 c0.14 0 0.26 0.12 0.26 0.26 l0 2.24 c0 0.14 -0.12 0.26 -0.26 0.26 l-3.74 0 l0 2.14 l5.9 0 c0.14 0 0.26 0.12 0.26 0.26 l0 2.24 c0 0.14 -0.12 0.26 -0.26 0.26 l-8.74 0 c-0.16 0 -0.26 -0.12 -0.26 0.08 z M29.739 20 c-0.14 0 -0.26 -0.12 -0.26 -0.26 l0 -11.98 c0 -0.14 0.12 -0.26 0.26 -0.26 l4.78 0 c1.32 0 2.2 0.28 2.98 0.86 c1.08 0.78 1.52 2.26 1.02 3.52 c-0.26 0.64 -0.7 0.98 -1.3 1.3 c0.86 0.12 1.4 0.68 1.72 1.08 c0.46 0.6 0.7 1.32 0.7 2.16 c0 1.1 -0.44 2 -1.28 2.64 c-0.82 0.62 -1.94 0.94 -3.32 0.94 l-5.3 0 z M32.419 12.08 l1.96 0 c0.4 0 0.72 -0.08 0.94 -0.26 c0.2 -0.18 0.3 -0.42 0.3 -0.74 c0 -0.3 -0.1 -0.54 -0.3 -0.7 c-0.2 -0.18 -0.5 -0.26 -0.86 -0.26 l-2.04 0 l0 1.96 z M32.419 17.54 l2.34 0 c0.6 0 1.06 -0.12 1.4 -0.36 c0.3 -0.22 0.46 -0.52 0.46 -0.94 c0 -0.38 -0.16 -0.66 -0.46 -0.88 c-0.32 -0.22 -0.76 -0.34 -1.32 -0.34 l-2.42 0 l0 2.52 z M44.2185 20 l0 -11.98 c0 -0.5 0.1 -0.6 0.26 -0.6 l8.76 0 c0.14 0 0.26 0.1 0.26 0.24 l0 2.26 c0 0.14 -0.12 0.26 -0.26 0.26 l-5.92 0 l0 2.08 l3.74 0 c0.14 0 0.26 0.12 0.26 0.26 l0 2.24 c0 0.14 -0.12 0.26 -0.26 0.26 l-3.74 0 l0 2.14 l5.9 0 c0.14 0 0.26 0.12 0.26 0.26 l0 2.24 c0 0.14 -0.12 0.26 -0.26 0.26 l-8.74 0 c-0.16 0 -0.26 -0.12 -0.26 0.08 z M64.378 20 c-1.18 0 -2.26 -0.28 -3.22 -0.84 c-0.96 -0.58 -1.72 -1.36 -2.26 -2.34 s-0.82 -2.08 -0.82 -3.3 c0 -1.18 0.28 -2.28 0.84 -3.26 c0.56 -0.96 1.34 -1.74 2.3 -2.3 c0.98 -0.56 2.08 -0.84 3.24 -0.84 c0.88 0 1.74 0.2 2.58 0.56 c0.84 0.38 1.56 0.88 2.16 1.52 c0.08 0.1 0.08 0.24 0 0.34 l-1.9 1.56 c-0.06 0.06 -0.12 0.1 -0.2 0.1 s-0.16 -0.04 -0.2 -0.1 c-1.02 -1.24 -2.66 -1.5 -4.04 -0.64 c-1.2 0.74 -1.64 2.1 -1.58 3.46 c0.06 1.38 1.06 2.56 2.38 2.96 c1.2 0.36 2.38 0.08 3.24 -0.84 c0.06 -0.04 0.12 -0.08 0.2 -0.06 c0.08 0 0.14 0.02 0.18 0.08 l1.94 1.36 c0.08 0.1 0.08 0.24 0 0.34 c-0.64 0.68 -1.4 1.24 -2.24 1.64 c-0.86 0.4 -1.74 0.6 -2.6 0.6 z M73.1175 20 c-0.08 0 -0.16 -0.04 -0.2 -0.12 c-0.06 -0.06 -0.06 -0.16 -0.04 -0.24 l4.66 -11.98 c0.04 -0.1 0.14 -0.16 0.24 -0.16 l2.68 0 c0.1 0 0.2 0.06 0.24 0.16 l4.58 11.98 c0.02 0.08 0.02 0.16 -0.04 0.24 c-0.04 0.08 -0.12 0.12 -0.2 0.12 l-2.78 0 c-0.1 0 -0.2 -0.06 -0.24 -0.16 l-0.74 -1.84 l-4.5 0.02 l-0.74 1.82 c-0.04 0.1 -0.14 0.16 -0.24 0.16 l-2.68 0 z M77.5975 15.5 l2.88 0 l-1.44 -4.24 z M89.937 20 c-0.14 0 -0.26 -0.12 -0.26 -0.26 l0 -11.98 c0 -0.14 0.12 -0.26 0.26 -0.26 l2.6 0 c0.14 0 0.26 0.12 0.26 0.26 l0 4.92 l4.52 0 l0 -4.92 c0 -0.14 0.12 -0.26 0.26 -0.26 l2.6 0 c0.14 0 0.26 0.12 0.26 0.26 l0 11.98 c0 0.14 -0.12 0.26 -0.26 0.26 l-2.6 0 c-0.14 0 -0.26 -0.12 -0.26 -0.26 l0 -4.3 l-4.52 0 l0 4.3 c0 0.14 -0.12 0.26 -0.26 0.26 l-2.6 0 z M113.256 20 c-0.14 0 -0.26 -0.12 -0.26 -0.26 l0 -11.98 c0 -0.14 0.12 -0.26 0.26 -0.26 l2.6 0 c0.14 0 0.26 0.12 0.26 0.26 l0 4.92 l4.52 0 l0 -4.92 c0 -0.14 0.12 -0.26 0.26 -0.26 l2.6 0 c0.14 0 0.26 0.12 0.26 0.26 l0 11.98 c0 0.14 -0.12 0.26 -0.26 0.26 l-2.6 0 c-0.14 0 -0.26 -0.12 -0.26 -0.26 l0 -4.3 l-4.52 0 l0 4.3 c0 0.14 -0.12 0.26 -0.26 0.26 l-2.6 0 z M128.5955 20 c-0.08 0 -0.16 -0.04 -0.2 -0.12 c-0.06 -0.06 -0.06 -0.16 -0.04 -0.24 l4.66 -11.98 c0.04 -0.1 0.14 -0.16 0.24 -0.16 l2.68 0 c0.1 0 0.2 0.06 0.24 0.16 l4.58 11.98 c0.02 0.08 0.02 0.16 -0.04 0.24 c-0.04 0.08 -0.12 0.12 -0.2 0.12 l-2.78 0 c-0.1 0 -0.2 -0.06 -0.24 -0.16 l-0.74 -1.84 l-4.5 0.02 l-0.74 1.82 c-0.04 0.1 -0.14 0.16 -0.24 0.16 l-2.68 0 z M133.0755 15.5 l2.88 0 l-1.44 -4.24 z M147.195 20 c-0.14 0 -0.24 -0.12 -0.24 -0.26 l0 -9.44 l-2.74 0 c-0.14 0 -0.26 -0.1 -0.26 -0.24 l0 -2.3 c0 -0.14 0.12 -0.26 0.26 -0.26 l8.58 0 c0.16 0 0.26 0.12 0.26 0.26 l0 2.3 c0 0.14 -0.1 0.24 -0.26 0.24 l-2.74 0 l0 9.44 c0 0.14 -0.12 0.26 -0.26 0.26 l-2.6 0 z M163.9345 20 c-1.18 0 -2.26 -0.28 -3.22 -0.84 c-0.96 -0.58 -1.72 -1.36 -2.26 -2.34 s-0.82 -2.08 -0.82 -3.3 c0 -1.18 0.28 -2.28 0.84 -3.26 c0.56 -0.96 1.34 -1.74 2.3 -2.3 c0.98 -0.56 2.08 -0.84 3.24 -0.84 c0.88 0 1.74 0.2 2.58 0.56 c0.84 0.38 1.56 0.88 2.16 1.52 c0.08 0.1 0.08 0.24 0 0.34 l-1.9 1.56 c-0.06 0.06 -0.12 0.1 -0.2 0.1 s-0.16 -0.04 -0.2 -0.1 c-1.02 -1.24 -2.66 -1.5 -4.04 -0.64 c-1.2 0.74 -1.64 2.1 -1.58 3.46 c0.06 1.38 1.06 2.56 2.38 2.96 c1.2 0.36 2.38 0.08 3.24 -0.84 c0.06 -0.04 0.12 -0.08 0.2 -0.06 c0.08 0 0.14 0.02 0.18 0.08 l1.94 1.36 c0.08 0.1 0.08 0.24 0 0.34 c-0.64 0.68 -1.4 1.24 -2.24 1.64 c-0.86 0.4 -1.74 0.6 -2.6 0.6 z M173.674 20 c-0.14 0 -0.26 -0.12 -0.26 -0.26 l0 -11.98 c0 -0.14 0.12 -0.26 0.26 -0.26 l2.6 0 c0.14 0 0.26 0.12 0.26 0.26 l0 4.92 l4.52 0 l0 -4.92 c0 -0.14 0.12 -0.26 0.26 -0.26 l2.6 0 c0.14 0 0.26 0.12 0.26 0.26 l0 11.98 c0 0.14 -0.12 0.26 -0.26 0.26 l-2.6 0 c-0.14 0 -0.26 -0.12 -0.26 -0.26 l0 -4.3 l-4.52 0 l0 4.3 c0 0.14 -0.12 0.26 -0.26 0.26 l-2.6 0 z M188.7535 20 l0 -11.98 c0 -0.5 0.1 -0.6 0.26 -0.6 l8.76 0 c0.14 0 0.26 0.1 0.26 0.24 l0 2.26 c0 0.14 -0.12 0.26 -0.26 0.26 l-5.92 0 l0 2.08 l3.74 0 c0.14 0 0.26 0.12 0.26 0.26 l0 2.24 c0 0.14 -0.12 0.26 -0.26 0.26 l-3.74 0 l0 2.14 l5.9 0 c0.14 0 0.26 0.12 0.26 0.26 l0 2.24 c0 0.14 -0.12 0.26 -0.26 0.26 l-8.74 0 c-0.16 0 -0.26 -0.12 -0.26 0.08 z M202.873 20 c-0.14 0 -0.26 -0.12 -0.26 -0.26 l0 -11.98 c0 -0.14 0.12 -0.26 0.26 -0.26 l2.6 0 c0.14 0 0.26 0.12 0.26 0.26 l0 9.36 l4.5 0 c0.14 0 0.26 0.12 0.26 0.26 l0 2.36 c0 0.14 -0.12 0.26 -0.26 0.26 l-7.36 0 z M216.0325 21.82 c-0.08 0 -0.14 -0.04 -0.2 -0.1 c-0.04 -0.06 -0.04 -0.14 -0.02 -0.2 l0.34 -1.64 c-0.66 -0.04 -1.08 -0.72 -1.08 -1.22 c0 -0.42 0.14 -0.76 0.4 -1.04 c0.26 -0.26 0.6 -0.4 0.98 -0.4 s0.7 0.12 0.96 0.38 s0.4 0.62 0.4 1.06 c0 0.18 -0.04 0.36 -0.1 0.54 c-0.04 0.14 -0.12 0.32 -0.22 0.52 l-1.06 1.98 c-0.06 0.08 -0.12 0.12 -0.22 0.12 l-0.18 0 z M230.6315 20 c-0.16 0 -0.26 -0.12 -0.26 -0.26 l0 -11.98 c0 -0.14 0.1 -0.26 0.26 -0.26 l4.54 0 c1.2 0 2.3 0.26 3.26 0.8 c0.96 0.52 1.7 1.26 2.24 2.22 c0.52 0.94 0.8 2.02 0.8 3.22 c0 1.22 -0.28 2.3 -0.82 3.24 c-0.54 0.96 -1.3 1.7 -2.28 2.22 c-0.96 0.54 -2.08 0.8 -3.3 0.8 l-4.44 0 z M233.4715 17.2 l1.76 0 c0.58 0 1.12 -0.14 1.58 -0.42 c0.46 -0.3 0.84 -0.7 1.1 -1.22 s0.4 -1.12 0.4 -1.8 c0 -0.66 -0.14 -1.28 -0.42 -1.8 c-0.28 -0.54 -0.66 -0.94 -1.14 -1.24 c-0.48 -0.28 -1.04 -0.44 -1.64 -0.44 l-1.64 0 l0 6.92 z M252.491 20 c-1.2 0 -2.3 -0.28 -3.26 -0.84 c-0.98 -0.56 -1.76 -1.36 -2.34 -2.32 c-0.56 -0.98 -0.84 -2.1 -0.84 -3.3 c0 -1.18 0.28 -2.28 0.84 -3.26 c0.58 -0.98 1.34 -1.76 2.32 -2.32 s2.08 -0.84 3.28 -0.84 c1.18 0 2.28 0.28 3.26 0.84 s1.76 1.34 2.32 2.32 c0.58 0.98 0.86 2.08 0.86 3.26 c0 1.2 -0.28 2.3 -0.86 3.28 c-0.56 0.98 -1.34 1.76 -2.32 2.34 c-0.98 0.56 -2.08 0.84 -3.26 0.84 z M252.531 17.12 c0.58 0 1.12 -0.16 1.6 -0.46 c0.5 -0.32 0.9 -0.74 1.18 -1.3 c0.3 -0.54 0.44 -1.16 0.44 -1.82 c0 -0.64 -0.14 -1.26 -0.44 -1.8 c-0.28 -0.54 -0.68 -0.96 -1.18 -1.28 c-0.48 -0.3 -1.02 -0.46 -1.6 -0.46 c-0.6 0 -1.14 0.16 -1.64 0.46 c-0.52 0.32 -0.92 0.74 -1.22 1.28 c-0.3 0.56 -0.44 1.16 -0.44 1.8 c0 0.66 0.14 1.28 0.44 1.82 c0.32 0.54 0.72 0.98 1.22 1.28 c0.5 0.32 1.04 0.48 1.64 0.48 z M268.7305 20 c-1.08 0 -1.86 -0.22 -2.68 -0.66 c-0.8 -0.44 -1.44 -1.06 -1.88 -1.88 c-0.44 -0.8 -0.66 -1.76 -0.66 -2.86 l0 -7.04 c0 -0.14 0.12 -0.24 0.26 -0.24 l2.6 0 c0.14 0 0.24 0.1 0.24 0.24 l0 7.04 c0 0.8 0.22 1.42 0.64 1.86 s0.8 0.66 1.5 0.66 s1.06 -0.22 1.46 -0.64 c0.4 -0.44 0.6 -1.08 0.6 -1.88 l0 -7.04 c0 -0.14 0.12 -0.24 0.26 -0.24 l2.6 0 c0.14 0 0.26 0.1 0.26 0.24 l0 7.04 c0 1.1 -0.22 2.06 -0.66 2.86 c-0.42 0.82 -1.06 1.44 -1.86 1.88 s-1.6 0.66 -2.68 0.66 z M278.77 20 c-0.14 0 -0.26 -0.12 -0.26 -0.26 l0 -11.98 c0 -0.14 0.12 -0.26 0.26 -0.26 l2.6 0 c0.14 0 0.26 0.12 0.26 0.26 l0 9.36 l4.5 0 c0.14 0 0.26 0.12 0.26 0.26 l0 2.36 c0 0.14 -0.12 0.26 -0.26 0.26 l-7.36 0 z M291.2295 20 c-0.08 0 -0.16 -0.04 -0.2 -0.12 c-0.06 -0.06 -0.06 -0.16 -0.04 -0.24 l4.66 -11.98 c0.04 -0.1 0.14 -0.16 0.24 -0.16 l2.68 0 c0.1 0 0.2 0.06 0.24 0.16 l4.58 11.98 c0.02 0.08 0.02 0.16 -0.04 0.24 c-0.04 0.08 -0.12 0.12 -0.2 0.12 l-2.78 0 c-0.1 0 -0.2 -0.06 -0.24 -0.16 l-0.74 -1.84 l-4.5 0.02 l-0.74 1.82 c-0.04 0.1 -0.14 0.16 -0.24 0.16 l-2.68 0 z M295.7095 15.5 l2.88 0 l-1.44 -4.24 z"/></g>
			</g>
		</svg>
	